<svg xmlns="http://www.w3.org/2000/svg" xmlns:xlink="http://www.w3.org/1999/xlink" width="143" height="143" viewBox="0 0 143 143">
  <defs>
    <clipPath id="clip-path">
      <rect id="Rectangle_134" data-name="Rectangle 134" width="77.476" height="77.447" fill="#007ac1"/>
    </clipPath>
  </defs>
  <g id="Group_280" data-name="Group 280" transform="translate(-701 -4098)">
    <g id="Group_198" data-name="Group 198" transform="translate(700.6 4098)">
      <circle id="Ellipse_5" data-name="Ellipse 5" cx="71.5" cy="71.5" r="71.5" transform="translate(0.401)" fill="#fff"/>
    </g>
    <g id="Group_246" data-name="Group 246" transform="translate(733.762 4130.379)">
      <g id="Group_245" data-name="Group 245" clip-path="url(#clip-path)">
        <path id="Path_184" data-name="Path 184" d="M55.649,70.332a27.613,27.613,0,0,1-3.083-.435,1.15,1.15,0,0,0-1.469.612,14.389,14.389,0,0,1-24.293.508,1.981,1.981,0,0,0-2.4-1.027A14.358,14.358,0,0,1,7.351,53.735a2.828,2.828,0,0,0-1.293-3.367A14.038,14.038,0,0,1,1.067,33.35,13.778,13.778,0,0,1,6.96,26.393a1.082,1.082,0,0,0,.6-1.429,14.16,14.16,0,0,1,5.63-15.183A14.112,14.112,0,0,1,24.976,7.512a1.16,1.16,0,0,0,1.468-.6A14,14,0,0,1,38.613,0,13.831,13.831,0,0,1,50.795,6.5a1.776,1.776,0,0,0,2.256.9c7.78-1.866,16.16,3.991,17.043,11.963a30.219,30.219,0,0,1-.159,5.6,1.342,1.342,0,0,0,.69,1.456A14.432,14.432,0,0,1,72.77,49.357a11.709,11.709,0,0,1-2.073,1.6,1.319,1.319,0,0,0-.711,1.708,13.927,13.927,0,0,1-.69,8.5,14.646,14.646,0,0,1-13.648,9.174M34.063,43.15a1.217,1.217,0,0,1-.233-.082c-1.86-1.8-3.7-3.625-5.585-5.4-1-.942-2.123-1.7-3.615-1.273-2.837.8-3.807,3.759-1.8,5.907,2.734,2.921,5.589,5.734,8.48,8.5,1.7,1.632,3.178,1.573,5.022.082a8.726,8.726,0,0,0,.658-.625q7.887-7.885,15.768-15.775a10.088,10.088,0,0,0,1.048-1.222,3.363,3.363,0,0,0-.8-4.645c-1.813-1.266-3.406-1.087-5.13.628q-5.829,5.8-11.633,11.632c-.758.759-1.487,1.546-2.183,2.271" transform="translate(0 0)" fill="#007ac1"/>
      </g>
    </g>
  </g>
</svg>
