<svg xmlns="http://www.w3.org/2000/svg" width="143" height="143" viewBox="0 0 143 143">
  <g id="Group_281" data-name="Group 281" transform="translate(-1262 -4098)">
    <g id="Group_197" data-name="Group 197" transform="translate(1262.263 4098)">
      <circle id="Ellipse_6" data-name="Ellipse 6" cx="71.5" cy="71.5" r="71.5" transform="translate(-0.263)" fill="#fff"/>
    </g>
    <path id="clipboard-check-solid" d="M55.109,10.5H46.272a15.653,15.653,0,0,0-29.559,0H7.873A7.873,7.873,0,0,0,0,18.37V76.1a7.875,7.875,0,0,0,7.873,7.873H55.109A7.873,7.873,0,0,0,62.982,76.1V18.37A7.873,7.873,0,0,0,55.109,10.5Zm-23.618,0a5.248,5.248,0,1,1-5.248,5.248A5.249,5.249,0,0,1,31.491,10.5ZM46.4,43.1,31.966,61.473a3.925,3.925,0,0,1-2.711,1.486c-.126-.125-.257.023-.389.023a3.933,3.933,0,0,1-2.562-.948L17.12,54.161a3.936,3.936,0,1,1,5.125-5.976l6.065,5.2L40.2,38.247A3.936,3.936,0,0,1,46.4,43.1Z" transform="translate(1302.009 4127.115)" fill="#007ac1"/>
  </g>
</svg>
