<?xml version="1.0" encoding="utf-8"?>
<!-- Generator: Adobe Illustrator 26.3.1, SVG Export Plug-In . SVG Version: 6.00 Build 0)  -->
<svg version="1.1" id="Layer_1" xmlns="http://www.w3.org/2000/svg" xmlns:xlink="http://www.w3.org/1999/xlink" x="0px" y="0px"
	 viewBox="0 0 21.3 45.7" style="enable-background:new 0 0 21.3 45.7;" xml:space="preserve">
<style type="text/css">
	.st0{fill:#798445;}
</style>
<g id="_x23_020201ff" transform="translate(0 0)">
	<path id="Path_20" class="st0" d="M7,2.4c1.9-1.6,4.3-2.4,6.7-2.3c2.5,0,5.1,0,7.6,0c0,2.7,0,5.3,0,8c-1.6,0-3.3,0-4.9,0
		c-1.1,0-2,0.7-2.3,1.7c0,1.8,0,3.6,0,5.4c2.4,0,4.8,0,7.2,0c-0.2,2.6-0.5,5.2-0.9,7.7c-2.1,0-4.2,0-6.4,0c0,7.6,0,15.2,0,22.8
		c-3.1,0-6.3,0-9.4,0c-0.1-7.6,0-15.2,0-22.9c-1.5,0-3.1,0-4.6,0c0-2.6,0-5.1,0-7.7c1.5,0,3.1,0,4.6,0c0-2.5,0-5,0-7.5
		C4.8,5.7,5.6,3.8,7,2.4z"/>
</g>
</svg>
