<svg xmlns="http://www.w3.org/2000/svg" width="21.33" height="45.698" viewBox="0 0 21.33 45.698">
  <g id="_x23_020201ff" transform="translate(0 0)">
    <path id="Path_20" data-name="Path 20" d="M166.877,52.355a10.021,10.021,0,0,1,6.708-2.341c2.529-.023,5.057-.009,7.585-.008q.015,4,0,8c-1.634,0-3.27,0-4.9,0a2.259,2.259,0,0,0-2.289,1.748c-.025,1.785-.009,3.571-.008,5.356,2.4.01,4.794,0,7.191.006-.175,2.582-.5,5.153-.872,7.713-2.117.02-4.236,0-6.353.011-.019,7.616.01,15.232-.015,22.849-3.145.013-6.291-.006-9.436.009-.06-7.617,0-15.238-.033-22.856-1.534-.016-3.069.011-4.6-.013.006-2.561,0-5.121,0-7.681,1.533-.019,3.067,0,4.6-.011.047-2.489-.047-4.981.049-7.468A8.05,8.05,0,0,1,166.877,52.355Z" transform="translate(-159.848 -50.001)" fill="#f5f5f5"/>
  </g>
</svg>
