<?xml version="1.0" encoding="utf-8"?>
<!-- Generator: Adobe Illustrator 26.3.1, SVG Export Plug-In . SVG Version: 6.00 Build 0)  -->
<svg version="1.1" id="Layer_1" xmlns="http://www.w3.org/2000/svg" xmlns:xlink="http://www.w3.org/1999/xlink" x="0px" y="0px"
	 viewBox="0 0 43.9 44.8" style="enable-background:new 0 0 43.9 44.8;" xml:space="preserve">
<style type="text/css">
	.st0{fill:#798445;}
</style>
<path id="google" class="st0" d="M22.4,19.2h21.2c0.2,1.2,0.3,2.5,0.4,3.7c0.1,3.9-0.8,7.8-2.7,11.3c-1.7,3.3-4.4,6-7.6,7.8
	c-3.4,1.9-7.3,2.9-11.3,2.8c-3,0-6-0.6-8.7-1.8C8.3,40.8,4,36.6,1.8,31.2c-2.4-5.6-2.4-11.9,0-17.5C4,8.3,8.3,4,13.7,1.8
	C16.5,0.6,19.4,0,22.4,0c5.6-0.1,11,2,15,5.9l-6.1,5.9c-2.4-2.3-5.6-3.6-8.9-3.5c-2.5,0-4.9,0.6-7,1.9c-6.8,4-9,12.8-4.9,19.6
	c1.2,2,2.9,3.7,4.9,4.9c2.1,1.3,4.5,1.9,7,1.9c1.6,0,3.2-0.2,4.7-0.7c1.3-0.4,2.4-1,3.5-1.8c0.9-0.7,1.7-1.5,2.4-2.4
	c0.6-0.8,1.1-1.6,1.5-2.5c0.3-0.7,0.5-1.5,0.7-2.3H22.4L22.4,19.2z"/>
</svg>
