<svg xmlns="http://www.w3.org/2000/svg" width="43.943" height="44.848" viewBox="0 0 43.943 44.848">
  <path id="google" d="M150.424,147.212h21.169a21.216,21.216,0,0,1,.35,3.737,23.652,23.652,0,0,1-2.657,11.314,19.183,19.183,0,0,1-7.577,7.781,22.393,22.393,0,0,1-11.285,2.8,22.044,22.044,0,0,1-8.73-1.766,21.978,21.978,0,0,1-11.927-11.927,22.457,22.457,0,0,1,0-17.461,21.978,21.978,0,0,1,11.927-11.927,22.044,22.044,0,0,1,8.73-1.766,21.249,21.249,0,0,1,15.037,5.869l-6.1,5.869a12.344,12.344,0,0,0-8.935-3.475,13.4,13.4,0,0,0-6.964,1.9,14.282,14.282,0,0,0,0,24.526,13.4,13.4,0,0,0,6.964,1.9,14.885,14.885,0,0,0,4.672-.7,11.782,11.782,0,0,0,3.5-1.752,12.675,12.675,0,0,0,2.394-2.394,11.155,11.155,0,0,0,1.5-2.54,10.727,10.727,0,0,0,.657-2.277h-12.73Z" transform="translate(-128 -128)" fill="#f5f5f5"/>
</svg>
