<?xml version="1.0" encoding="utf-8"?>
<!-- Generator: Adobe Illustrator 26.3.1, SVG Export Plug-In . SVG Version: 6.00 Build 0)  -->
<svg version="1.1" id="linkedin" xmlns="http://www.w3.org/2000/svg" xmlns:xlink="http://www.w3.org/1999/xlink" x="0px" y="0px"
	 viewBox="0 0 36.3 35.6" style="enable-background:new 0 0 36.3 35.6;" xml:space="preserve">
<style type="text/css">
	.st0{fill:#798445;}
</style>
<path id="Path_24" class="st0" d="M0.3,11.6l7.3-0.1v24l-7.3,0.1V11.6z"/>
<path id="Path_25" class="st0" d="M13.7,11.6l7-0.1v3.1v0.9c2.1-2,4.2-3.6,7.6-3.6c4,0,7.9,1.7,7.9,7.2v16.4l-7.1,0.1V23
	c0-2.8-0.7-4.6-4-4.6c-2.9,0-4.1,0.5-4.1,4.4v12.7l-7.3,0.1L13.7,11.6L13.7,11.6z"/>
<path id="Path_26" class="st0" d="M8,4c0,2.2-1.8,4-4,4S0,6.2,0,4s1.8-4,4-4l0,0C6.2,0,8,1.8,8,4z"/>
</svg>
