<svg id="linkedin" xmlns="http://www.w3.org/2000/svg" width="36.253" height="35.559" viewBox="0 0 36.253 35.559">
  <path id="Path_24" data-name="Path 24" d="M29.675,176.209l7.32-.091V200.09l-7.32.093V176.209Z" transform="translate(-29.405 -164.641)" fill="#007ac1"/>
  <path id="Path_25" data-name="Path 25" d="M200.141,176.238l6.995-.089V179.2l0,.864c2.071-2.031,4.207-3.566,7.619-3.566,4.025,0,7.918,1.687,7.918,7.182v16.445l-7.1.106V187.666c0-2.77-.694-4.555-4-4.555-2.914,0-4.134.522-4.134,4.356v12.655l-7.3.088V176.238Z" transform="translate(-186.422 -164.67)" fill="#007ac1"/>
  <path id="Path_26" data-name="Path 26" d="M34.27,34.664a4.007,4.007,0,1,1-4.007-4.007,4.007,4.007,0,0,1,4.007,4.007Z" transform="translate(-26.255 -30.657)" fill="#007ac1"/>
</svg>
