<svg xmlns="http://www.w3.org/2000/svg" width="45.724" height="44.848" viewBox="0 0 45.724 44.848">
  <g id="linkedin" transform="translate(0 0)">
    <path id="Path_24" data-name="Path 24" d="M29.675,176.233l9.233-.115v30.234l-9.233.117V176.233Z" transform="translate(-29.335 -161.643)" fill="#f5f5f5"/>
    <path id="Path_25" data-name="Path 25" d="M200.141,176.261l8.822-.112v3.846l0,1.089c2.613-2.562,5.306-4.5,9.609-4.5,5.077,0,9.987,2.128,9.987,9.059v20.741l-8.956.133V190.674c0-3.493-.875-5.745-5.047-5.745-3.675,0-5.214.658-5.214,5.494v15.961l-9.2.111V176.261Z" transform="translate(-182.838 -161.671)" fill="#f5f5f5"/>
    <path id="Path_26" data-name="Path 26" d="M36.363,35.711a5.054,5.054,0,1,1-5.054-5.054,5.054,5.054,0,0,1,5.054,5.054Z" transform="translate(-26.255 -30.657)" fill="#f5f5f5"/>
  </g>
</svg>
