<svg xmlns="http://www.w3.org/2000/svg" xmlns:xlink="http://www.w3.org/1999/xlink" width="36.118" height="32.476" viewBox="0 0 36.118 32.476">
  <defs>
    <clipPath id="clip-path">
      <rect id="Rectangle_95" data-name="Rectangle 95" width="36.118" height="32.476" transform="translate(0 0)" fill="#798445"/>
    </clipPath>
  </defs>
  <g id="Group_214" data-name="Group 214" transform="translate(0 -0.003)">
    <g id="Group_213" data-name="Group 213" transform="translate(0 0.003)" clip-path="url(#clip-path)">
      <path id="Path_177" data-name="Path 177" d="M0,16.251a17.908,17.908,0,0,1,.417-3.586A15.59,15.59,0,0,1,1.567,9.32c.172-.358.355-.711.552-1.056.235-.412.477-.822.743-1.214.233-.344.509-.659.758-.994A12.992,12.992,0,0,1,5.2,4.34,16.232,16.232,0,0,1,13.119.3,13.038,13.038,0,0,1,15.264.03C15.879.012,16.5-.012,17.11.016a15.713,15.713,0,0,1,4.075.734,15.981,15.981,0,0,1,5.072,2.677.643.643,0,0,1,.069,1c-.436.44-.879.873-1.32,1.31a3.45,3.45,0,0,1-.258.254A.643.643,0,0,1,23.937,6a12.776,12.776,0,0,0-4.4-2.137A12.2,12.2,0,0,0,17.557,3.5a13.141,13.141,0,0,0-2.371-.017,12.429,12.429,0,0,0-2.255.393A12.793,12.793,0,0,0,6.525,7.953,13.069,13.069,0,0,0,5,10.176a12.619,12.619,0,0,0-1.386,4.139,12.8,12.8,0,0,0-.137,2.39,12.8,12.8,0,0,0,4.03,8.851,12.827,12.827,0,0,0,3.471,2.33,12.132,12.132,0,0,0,2.857.912c.573.1,1.158.158,1.739.208a10.838,10.838,0,0,0,2.287-.072,12.6,12.6,0,0,0,2.537-.588,12.341,12.341,0,0,0,1.957-.861,13.142,13.142,0,0,0,2.149-1.471,12.721,12.721,0,0,0,1.323-1.288,11.606,11.606,0,0,0,1.5-2.072c.241-.437.471-.88.677-1.334a11.873,11.873,0,0,0,.769-2.353,13.408,13.408,0,0,0,.279-3.395c-.006-.16-.017-.319-.023-.479a.67.67,0,0,1,.211-.515q1.121-1.121,2.242-2.242a.334.334,0,0,1,.6.18,16.13,16.13,0,0,1,.361,2.25,17.181,17.181,0,0,1,.012,2.768A16.13,16.13,0,0,1,32,20.312,14.9,14.9,0,0,1,30.988,23.1c-.195.4-.4.805-.614,1.2-.172.308-.372.6-.567.9s-.379.57-.586.843c-.225.3-.458.591-.708.869-.32.357-.65.706-.992,1.041a15.365,15.365,0,0,1-2.073,1.689,16.613,16.613,0,0,1-2.08,1.212,16.215,16.215,0,0,1-7.705,1.619A16.112,16.112,0,0,1,7.52,29.929,16.8,16.8,0,0,1,5.3,28.221a16.2,16.2,0,0,1-1.658-1.76c-.219-.267-.409-.558-.619-.833a13.793,13.793,0,0,1-1.282-2.115A15.51,15.51,0,0,1,.86,21.4a15.352,15.352,0,0,1-.729-3.306C.067,17.48.042,16.864,0,16.251" transform="translate(0 -0.003)" fill="#798445"/>
      <path id="Path_178" data-name="Path 178" d="M255.289,69.249c.069-.063.112-.1.153-.141l3.081-3.058,3.693-3.67,2.938-2.917,1.88-1.87q1.227-1.22,2.455-2.44,1.2-1.194,2.408-2.386a1.259,1.259,0,0,1,1.711-.007c.525.511,1.041,1.032,1.566,1.542a1.26,1.26,0,0,1,0,1.838c-.168.163-.324.337-.491.5-.26.255-.528.5-.787.759-.172.169-.335.349-.5.52q-.455.46-.914.916-3.787,3.788-7.575,7.575c-.19.19-.4.359-.575.563s-.368.37-.546.561c-.257.275-.533.533-.8.8l-4.435,4.433c-.783.783-1.565,1.569-2.352,2.348a1.259,1.259,0,0,1-1.773,0q-1.379-1.368-2.749-2.744-1.643-1.642-3.285-3.284-.574-.573-1.154-1.141c-.1-.1-.21-.191-.309-.293-.126-.13-.24-.272-.368-.4-.264-.263-.541-.514-.8-.782a1.537,1.537,0,0,1-.562-1.051,1.311,1.311,0,0,1,.4-.989l1.186-1.176c.13-.129.255-.263.391-.385a1.273,1.273,0,0,1,1.678.032c.519.506,1.033,1.018,1.551,1.525.454.445.911.886,1.364,1.332.475.467.947.939,1.422,1.406.567.557,1.138,1.11,1.706,1.668.133.131.257.27.4.419" transform="translate(-239.453 -51.202)" fill="#798445"/>
    </g>
  </g>
</svg>
