<svg xmlns="http://www.w3.org/2000/svg" width="37.307" height="40.991" viewBox="0 0 37.307 40.991">
  <g id="noun_Map_1605387" transform="translate(0 0)">
    <g id="Group_125" data-name="Group 125" transform="translate(0 0)">
      <path id="Path_31" data-name="Path 31" d="M43.625,75.614,39.01,67.937A2.7,2.7,0,0,0,36.724,66.6H32.972l-4.054,6.3a4.193,4.193,0,0,1-7.073,0l-4.054-6.3H14.039a2.56,2.56,0,0,0-2.286,1.337L7.138,75.614A2.862,2.862,0,0,0,7.1,78.547a2.667,2.667,0,0,0,2.329,1.38H41.339a2.667,2.667,0,0,0,2.329-1.38A3.077,3.077,0,0,0,43.625,75.614Z" transform="translate(-6.712 -38.936)" fill="#798445"/>
      <path id="Path_32" data-name="Path 32" d="M32.325,35.124a1.734,1.734,0,0,0,2.933,0l9.186-14.232a12.508,12.508,0,0,0,1.639-6.426,12.433,12.433,0,0,0-11.6-11.99A12.3,12.3,0,0,0,23.139,20.891ZM33.792,8.729A5.995,5.995,0,1,1,27.8,14.724,6.01,6.01,0,0,1,33.792,8.729Z" transform="translate(-15.122 -2.456)" fill="#798445"/>
    </g>
  </g>
</svg>
