<svg xmlns="http://www.w3.org/2000/svg" width="33.392" height="33.386" viewBox="0 0 33.392 33.386">
  <path id="phone-1" d="M50.67,44.09l-.166-.5a4.7,4.7,0,0,0-2.869-2.712l-4.387-1.2a4.3,4.3,0,0,0-3.757.982L37.9,42.248A16.841,16.841,0,0,1,26.051,30.4l1.588-1.588a4.294,4.294,0,0,0,.982-3.755l-1.2-4.389A4.69,4.69,0,0,0,24.711,17.8l-.5-.168A3.981,3.981,0,0,0,20.5,18.5L18.126,20.88a4.43,4.43,0,0,0-.7,1.634A28.031,28.031,0,0,0,45.715,50.862a4.412,4.412,0,0,0,1.706-.689L49.8,47.8A3.981,3.981,0,0,0,50.67,44.09Z" transform="translate(-17.429 -17.478)" fill="#798445"/>
</svg>
