<svg xmlns="http://www.w3.org/2000/svg" width="143" height="143" viewBox="0 0 143 143">
  <g id="Group_279" data-name="Group 279" transform="translate(-140 -4098)">
    <g id="Group_199" data-name="Group 199" transform="translate(140 4098)">
      <circle id="Ellipse_4" data-name="Ellipse 4" cx="71.5" cy="71.5" r="71.5" fill="#fff"/>
    </g>
    <path id="shield-halved-solid" d="M54.638-.008a5.289,5.289,0,0,1,2.2.479l30.9,13.11a10.122,10.122,0,0,1,6.286,9.242c-.082,16.429-6.778,46.218-35.057,59.758a10.139,10.139,0,0,1-8.666,0C22.018,69.041,15.328,39.252,15.1,22.823a10.522,10.522,0,0,1,6.434-9.242L52.455.472a5.214,5.214,0,0,1,2.183-.479Zm0,73c22.5-10.964,28.738-35.238,28.886-49.8L54.638,10.952Z" transform="translate(156.936 4130.387)" fill="#007ac1"/>
  </g>
</svg>
