<?xml version="1.0" encoding="utf-8"?>
<!-- Generator: Adobe Illustrator 26.3.1, SVG Export Plug-In . SVG Version: 6.00 Build 0)  -->
<svg version="1.1" id="Layer_1" xmlns="http://www.w3.org/2000/svg" xmlns:xlink="http://www.w3.org/1999/xlink" x="0px" y="0px"
	 viewBox="0 0 56.3 45.7" style="enable-background:new 0 0 56.3 45.7;" xml:space="preserve">
<style type="text/css">
	.st0{fill:#798445;}
</style>
<g id="twitter" transform="translate(0 0)">
	<g id="Group_48" transform="translate(0 0)">
		<path id="Path_18" class="st0" d="M56.3,5.4c-2.1,0.9-4.3,1.5-6.6,1.8c2.4-1.4,4.2-3.7,5.1-6.4c-2.3,1.3-4.7,2.3-7.3,2.8
			C43-1,35.7-1.2,31,3.2c-3,2.8-4.3,7-3.3,11C18.4,13.7,9.8,9.3,3.9,2.1c-3.1,5.3-1.5,12,3.6,15.4c-1.8-0.1-3.6-0.6-5.2-1.4v0.1
			c0,5.5,3.9,10.2,9.3,11.3c-1,0.3-2,0.4-3,0.4c-0.7,0-1.5-0.1-2.2-0.2c1.5,4.7,5.8,7.9,10.8,8c-4.1,3.2-9.1,4.9-14.3,4.9
			c-0.9,0-1.8-0.1-2.8-0.2c5.3,3.4,11.4,5.2,17.7,5.2c21.2,0,32.8-17.6,32.8-32.8l0-1.5C52.8,9.7,54.7,7.7,56.3,5.4z"/>
	</g>
</g>
</svg>
