<svg xmlns="http://www.w3.org/2000/svg" width="56.258" height="45.697" viewBox="0 0 56.258 45.697">
  <g id="twitter" transform="translate(0 0)">
    <g id="Group_48" data-name="Group 48" transform="translate(0 0)">
      <path id="Path_18" data-name="Path 18" d="M56.259,62.848a23.046,23.046,0,0,1-6.627,1.818A11.589,11.589,0,0,0,54.7,58.285a23.266,23.266,0,0,1-7.333,2.8A11.55,11.55,0,0,0,27.706,71.608,32.765,32.765,0,0,1,3.921,59.55a11.554,11.554,0,0,0,3.572,15.4,11.541,11.541,0,0,1-5.227-1.448v.144a11.552,11.552,0,0,0,9.256,11.316,11.689,11.689,0,0,1-3.041.4,11.075,11.075,0,0,1-2.173-.214,11.547,11.547,0,0,0,10.778,8.015A23.155,23.155,0,0,1,2.754,98.1,24.536,24.536,0,0,1,0,97.946a32.622,32.622,0,0,0,17.69,5.192c21.23,0,32.834-17.584,32.834-32.834l-.039-1.494A23.046,23.046,0,0,0,56.259,62.848Z" transform="translate(-0.001 -57.441)" fill="#f5f5f5"/>
    </g>
  </g>
</svg>
